Coordinates
version=1
nRows=9
nColumns=24
inDegrees=yes

Units are S.I. units (second, meters, Newtons, ...)
Angles are in degrees.

endheader
time	pelvis_tilt	pelvis_list	pelvis_rotation	pelvis_tx	pelvis_ty	pelvis_tz	hip_flexion_r	hip_adduction_r	hip_rotation_r	knee_angle_r	ankle_angle_r	subtalar_angle_r	mtp_angle_r	hip_flexion_l	hip_adduction_l	hip_rotation_l	knee_angle_l	ankle_angle_l	subtalar_angle_l	mtp_angle_l	lumbar_extension	lumbar_bending	lumbar_rotation
      1.22050000	      1.42832144	      8.86491945	     -5.36102258	      0.23083412	      1.00924402	      0.27701838	     13.33324873	    -11.70861244	     -0.55196458	    -66.86751371	     -0.41897891	     -7.14790219	      4.74125670	      6.49375204	     14.44781346	      5.53152764	    -14.85355152	      5.42890397	    -16.80073783	     -0.94790525	    -14.94038677	     -4.18120298	     -1.22679857
      1.22466667	      1.47079474	      8.73711255	     -5.49647433	      0.23592041	      1.01003609	      0.27695570	     13.82498782	    -11.48926903	     -0.43556179	    -66.51809944	      0.26923636	     -7.28292364	      4.52216984	      5.90018151	     14.35516468	      5.66003962	    -14.39104414	      5.34285993	    -17.03991067	     -1.08429424	    -15.00186446	     -3.93157581	     -1.52095178
      1.22883333	      1.46054314	      8.58032878	     -5.64164506	      0.24097777	      1.01074977	      0.27698433	     14.35773634	    -11.19986578	     -0.28202299	    -66.10016516	      0.94448050	     -7.48287655	      4.48222809	      5.40233062	     14.20561419	      5.63201303	    -14.00955304	      5.37900008	    -17.03883476	     -1.11402018	    -14.99883073	     -3.72428154	     -1.57048585
      1.23300000	      1.47214139	      8.41245099	     -5.78620394	      0.24601177	      1.01148538	      0.27700318	     14.84895961	    -10.89651041	     -0.13057160	    -65.61772861	      1.60884122	     -7.63869256	      4.40398315	      4.86832070	     14.05158388	      5.64846674	    -13.60255842	      5.38059969	    -17.06941636	     -1.16886826	    -15.05272221	     -3.46213231	     -1.69089877
      1.23716667	      1.47157930	      8.23938892	     -5.90667772	      0.25109824	      1.01221512	      0.27702134	     15.31517071	    -10.58704165	     -0.00994143	    -65.05472182	      2.29485250	     -7.83049334	      4.35360100	      4.34471757	     13.88738719	      5.63598776	    -13.20138721	      5.39518599	    -17.08430603	     -1.20678134	    -15.04998455	     -3.22218111	     -1.78578931
      1.24133333	      1.53852084	      8.09165956	     -6.02212093	      0.25617691	      1.01298428	      0.27700518	     15.69660884	    -10.32317704	      0.09447730	    -64.44186251	      2.96397537	     -7.97170695	      4.11708840	      3.71443711	     13.76867828	      5.74103886	    -12.72384145	      5.34211520	    -17.21805660	     -1.36311102	    -15.13637983	     -2.99001832	     -2.04601789
      1.24550000	      1.49519976	      7.91236509	     -6.14361352	      0.26121452	      1.01358890	      0.27703465	     16.18547811	     -9.98521471	      0.24003188	    -63.77596357	      3.62906598	     -8.12815599	      4.06877392	      3.24842427	     13.59268008	      5.70645718	    -12.34017622	      5.35790608	    -17.20619300	     -1.40036047	    -15.10911984	     -2.72861051	     -2.09003406
      1.24966667	      1.49372554	      7.73955309	     -6.25737152	      0.26625415	      1.01422735	      0.27706862	     16.60575339	     -9.66161833	      0.37206369	    -63.04639687	      4.28452347	     -8.27334155	      4.01201253	      2.72681738	     13.42852946	      5.69287340	    -11.93497791	      5.36247381	    -17.19652324	     -1.44286314	    -15.13329259	     -2.47495220	     -2.18405822
      1.25383333	      1.54322952	      7.58718154	     -6.36514602	      0.27133077	      1.01491318	      0.27706953	     16.94850921	     -9.37770226	      0.48762605	    -62.25593570	      4.92871288	     -8.36575725	      3.38002234	      2.10185423	     13.30642399	      5.82349885	    -11.42752332	      5.24038815	    -17.45933590	     -1.84903620	    -15.18348994	     -2.23756559	     -2.49606654
